<svg width="60" height="60" viewBox="0 0 60 60" fill="none" xmlns="http://www.w3.org/2000/svg">
<g clip-path="url(#clip0_197_3247)">
<path d="M49.2705 39.3749C45.1768 39.3749 40.8538 36.6978 38.7288 34.7499C36.4059 32.6249 30.0309 25.7083 29.9997 25.677C25.8122 21.0103 20.1976 15.8333 14.583 15.8333C7.82259 15.8333 1.93717 20.5103 0.395508 26.7083C0.520508 26.302 2.66634 20.6249 10.7288 20.6249C14.8226 20.6249 19.1455 23.302 21.2705 25.2499C23.5934 27.3749 29.9684 34.2916 29.9997 34.3228C34.1872 38.9895 39.8018 44.1666 45.4163 44.1666C52.1768 44.1666 58.0622 39.4895 59.6038 33.2916C59.4788 33.6978 57.333 39.3749 49.2705 39.3749Z" fill="currentColor"/>
<path d="M30 34.3229C29.9896 34.3021 28.1458 32.3125 26.0938 30.1458C24.9792 31.4687 23.375 33.2708 21.5312 34.8854C18.0938 37.8958 15.8646 38.5312 14.5833 38.5312C9.76042 38.5312 5.83333 34.7083 5.83333 30.0104C5.83333 25.3438 9.76042 21.5208 14.5833 21.4896C14.7604 21.4896 14.9688 21.5104 15.2292 21.5521C13.7812 20.9896 12.2396 20.625 10.7292 20.625C2.66667 20.625 0.520833 26.3021 0.395833 26.7083C0.135417 27.7708 0 28.8646 0 30C0 37.8125 6.44792 44.1667 14.4792 44.1667C17.8333 44.1667 21.5833 42.4479 25.4479 39.0625C27.2708 37.4583 28.8542 35.75 30.0521 34.375L30 34.3229Z" fill="currentColor"/>
<path d="M30.0003 25.677C30.0107 25.6978 31.8545 27.6874 33.9066 29.8541C35.0212 28.5312 36.6253 26.7291 38.4691 25.1145C41.9066 22.1041 44.1357 21.4687 45.417 21.4687C50.2399 21.4687 54.167 25.2916 54.167 29.9895C54.167 34.6562 50.2399 38.4791 45.417 38.5103C45.2399 38.5103 45.0316 38.4895 44.7712 38.4478C46.2191 38.9999 47.7607 39.3645 49.2712 39.3645C57.3337 39.3645 59.4795 33.6874 59.6045 33.2812C59.8649 32.2291 60.0003 31.1249 60.0003 29.9895C60.0003 22.1874 53.4482 15.8333 45.417 15.8333C42.0628 15.8333 38.417 17.552 34.5524 20.9374C32.7295 22.5416 31.1462 24.2499 29.9482 25.6249L30.0003 25.677Z" fill="currentColor"/>
</g>
<defs>
<linearGradient id="paint0_linear_197_3247" x1="22.1435" y1="42.3133" x2="2.4099" y2="21.8785" gradientUnits="userSpaceOnUse">
<stop offset="0.22" stop-color="currentColor"/>
<stop offset="0.892" stop-color="currentColor"/>
</linearGradient>
<linearGradient id="paint1_linear_197_3247" x1="37.8441" y1="17.6988" x2="57.5777" y2="38.1336" gradientUnits="userSpaceOnUse">
<stop offset="0.21" stop-color="currentColor"/>
<stop offset="0.684" stop-color="currentColor"/>
</linearGradient>
<clipPath id="clip0_197_3247">
<rect width="60" height="60" fill="white"/>
</clipPath>
</defs>
</svg>
